<?xml version="1.0" encoding="utf-8"?>
<!-- Generator: Adobe Illustrator 16.0.0, SVG Export Plug-In . SVG Version: 6.00 Build 0)  -->
<!DOCTYPE svg PUBLIC "-//W3C//DTD SVG 1.1//EN" "http://www.w3.org/Graphics/SVG/1.1/DTD/svg11.dtd">
<svg version="1.1" xmlns="http://www.w3.org/2000/svg" xmlns:xlink="http://www.w3.org/1999/xlink" x="0px" y="0px" width="906px"
	 height="1192px" viewBox="0 0 906 1192" enable-background="new 0 0 906 1192" xml:space="preserve">
<g id="BG" display="none">
	<rect x="-547" y="476" display="inline" fill="#8C6239" width="2000" height="240"/>
</g>
<g id="Fill" display="none">
	<rect display="inline" fill="#FFFFFF" width="906" height="1192"/>
</g>
<g id="Text" display="none">
	<g id="Organic_1_" display="inline">
		
			<text transform="matrix(1 0 0 1 85.1577 642.2754)" font-family="'ChaparralPro-BoldIt'" font-size="148.086" letter-spacing="14">Organic</text>
	</g>
</g>
<g id="Cornish">
	<g>
		<path fill="#FFFFFF" d="M244.794,557.274c-6.219,0-9.773,1.925-14.66,6.96c-5.775,6.071-12.587,24.138-12.587,43.538
			c0,5.331,0.444,11.551,3.85,16.733c2.666,4.146,7.552,6.517,12.439,6.517c4.146,0,8.589-0.889,13.772-6.517
			c5.923-6.22,11.551-24.582,11.551-42.945c0-5.035-0.741-12.884-3.11-17.475C254.272,560.68,250.718,557.274,244.794,557.274z"/>
		<path fill="#FFFFFF" d="M356.005,557.718c-2.073,0-3.702,0.148-5.183,0.593l-6.516,34.948c1.185,0.148,2.369,0.148,4.294,0.148
			c10.366,0,18.955-6.664,18.955-20.288C367.556,565.863,364.15,557.718,356.005,557.718z"/>
		<path fill="#FFFFFF" d="M0,0v1192h906V0H0z M169.271,578.45c-4.591,0.296-9.33,0.444-13.772,0.444l-0.444-14.957
			c0-0.74-0.148-1.629-0.741-2.073c-2.073-1.481-5.035-2.221-8.145-2.221c-4.443,0-9.774,1.333-14.216,5.331
			c-8.885,7.997-14.364,22.065-14.364,36.874c0,7.553,0.592,13.624,5.183,19.252c3.11,3.998,9.182,6.367,16.142,6.367
			c6.22,0,17.623-2.518,22.213-4.295c0.296,4.443,0.148,9.922,0,14.217c-9.773,3.702-22.657,6.367-29.469,6.367
			c-13.031,0-21.769-4.146-28.877-10.069c-7.997-6.664-11.402-17.771-11.402-29.321c0-21.028,11.699-39.391,25.619-49.313
			c10.811-7.849,23.102-10.514,36.281-10.514c9.33,0,16.29,1.481,19.251,3.11C171.64,557.718,170.456,568.232,169.271,578.45z
			 M263.602,632.354c-9.181,7.404-19.992,11.402-34.208,11.402c-14.068,0-23.842-5.33-29.914-12.439
			c-6.516-7.699-8.441-18.214-8.441-25.914c0-26.508,15.401-45.759,28.285-53.312c9.625-5.627,17.474-7.553,28.729-7.553
			c10.366,0,18.066,2.666,23.99,7.108c9.922,7.404,13.772,20.88,13.772,30.506C285.814,603.625,276.633,621.987,263.602,632.354z
			 M390.806,642.275c-2.813,0.148-7.997,0.148-10.958,0.148c-3.11,0-14.364,0.148-17.03,0.148
			c-3.11-6.664-7.256-23.843-9.033-30.654c-1.185-4.591-3.999-6.516-7.405-6.516c-1.925,0-3.109,0.147-3.998,0.296l-4.443,23.842
			l8.145,0.307c-0.592,4.146-1.481,8.153-2.37,12.153c-5.627,0-12.291,0-20.584,0c-6.368,0-12.883,0-18.363,0
			c0.593-4,1.333-8.007,2.073-12.153l7.108-0.376c0.444,0,0.592-0.261,0.74-0.706l12.292-69.731l-7.849-0.288
			c0.74-4.294,1.481-8.437,2.369-12.583c9.626-0.148,21.621-0.293,32.727-0.293c9.33,0,14.513,0.445,21.325,2.667
			c11.995,3.999,16.438,13.772,16.438,22.361c0,13.476-10.218,23.102-21.473,26.953l-0.148,0.74
			c5.775,2.962,7.256,11.402,11.403,25.322c1.037,3.555,3.554,5.184,6.812,5.628l4.442,0.593
			C392.435,633.982,391.694,638.277,390.806,642.275z M521.564,558.458l-6.961,0.444c-0.443,0-0.74,0.296-1.036,1.037
			l-14.364,81.003c-2.518,1.036-8.737,2.608-17.623,2.608C474.324,631.407,461.145,608,448.557,581h-0.889
			c-2.961,17-5.775,32.192-8.737,48.187l11.106,0.187c-0.74,4.294-1.481,8.627-2.37,12.627c-6.664,0-14.364,0-21.472,0
			c-4.739,0-9.774,0.286-13.772,0.286c0.741-4.295,1.481-8.521,2.37-12.667l7.552-0.409c0.592,0,0.741-0.429,0.741-0.724
			l11.995-69.592l-8.885-0.301c0.888-4.294,1.48-8.593,2.369-12.593c7.997,0,19.103,0,27.544,0c8.145,16,21.324,44.436,31.986,67.24
			l0.889-0.143c2.814-18.215,5.775-36.279,8.145-54.197l-11.698-0.305c0.741-4.294,1.481-8.596,2.37-12.596
			c6.219,0,13.771,0,20.584,0c5.034,0,10.958-0.139,15.4-0.139C523.193,550.008,522.452,554.164,521.564,558.458z M590.422,558.597
			l-8.589,0.449c-0.444,0-0.444,0.299-0.444,0.743l-12.439,69.306l9.773,0.592c-0.74,3.999-1.48,8.442-2.369,12.737
			c-5.775,0-14.068-0.148-21.324-0.148c-6.516,0-14.66,0.148-21.177,0.148c0.741-4.146,1.63-8.737,2.37-12.884l8.145-0.296
			c0.296-0.148,0.592-0.445,0.74-0.889l12.143-69.305l-9.033-0.454c0.74-4.146,1.629-8.597,2.369-12.597c6.221,0,15.401,0,22.065,0
			c6.96,0,14.809,0,20.288,0C592.199,550,591.311,554.599,590.422,558.597z M681.195,575.192c-3.999,0.296-8.886,0.444-13.18,0.74
			l-1.481-12.439c0-1.037-0.296-1.629-0.74-2.073c-1.777-1.333-5.627-2.666-9.033-2.666c-3.554,0-6.664,0.296-9.329,2.222
			c-2.073,1.48-5.184,5.183-5.184,10.07c0,7.108,5.479,9.181,17.326,13.92c15.104,6.22,20.584,14.661,20.584,24.583
			c0,12.734-6.22,21.176-14.513,26.803c-7.849,5.332-17.918,7.404-30.357,7.404c-9.033,0-18.511-1.332-24.138-4.294
			c0.592-9.034,1.185-18.067,1.629-27.101c4.442-0.443,9.478-0.889,13.624-1.036l2.369,13.328c0.148,0.74,0.296,1.48,0.592,1.925
			c1.926,1.333,6.22,3.258,11.699,3.258c4.295,0,8.589-0.889,11.106-2.518c2.369-1.777,4.887-5.035,4.887-9.182
			c0-7.552-5.331-9.625-15.697-14.216c-13.476-6.071-22.36-14.216-22.36-27.248c0-10.514,5.923-18.511,12.883-23.545
			c7.701-5.775,17.623-8.589,30.95-8.589c9.033,0,16.29,1.481,20.732,3.851C682.972,557.274,682.084,566.159,681.195,575.192z
			 M814.323,558.597l-7.256,0.449c-0.296,0-0.593,0.299-0.593,0.595l-12.587,69.454l7.996,0.592
			c-0.74,4.146-1.332,8.442-2.073,12.737c-5.627,0-13.771-0.148-19.843-0.148c-7.701,0-16.142,0.148-22.954,0.148
			c0.741-4.295,1.629-8.59,2.37-12.736l10.069-0.443c0.444,0,0.593-0.297,0.74-0.889l4.739-28.137c0-0.592,0-0.74-0.444-0.74
			l-31.395,0.296l-5.331,29.321l9.626,0.592c-0.74,4.146-1.481,8.441-2.37,12.736c-5.775,0-14.067-0.148-21.028-0.148
			c-6.516,0-14.512,0.148-20.731,0.148c0.74-4.295,1.48-8.59,2.221-12.736l7.404-0.443c0.444-0.148,0.741-0.593,0.889-0.889
			l12.144-69.305l-7.997-0.454c0.74-4.294,1.481-8.597,2.222-12.597c5.923,0,14.66,0,21.176,0c7.108,0,14.957,0,20.732,0
			c-0.592,4-1.48,8.303-2.369,12.597l-8.886,0.449c-0.443,0-0.592,0.299-0.592,0.743l-4.442,25.769
			c-0.148,0.444,0.296,0.593,0.592,0.593l31.099,0.148l4.591-27.248l-9.182-0.454c0.74-4.294,1.629-8.597,2.369-12.597
			c6.22,0,14.809,0,22.213,0c6.072,0,13.624,0,19.252,0C815.952,550,815.212,554.45,814.323,558.597z"/>
	</g>
</g>
<g id="Eco-Friendly" display="none">
	<g display="inline">
		<path fill="#FFFFFF" d="M673.432,564.92c-1.187,0-2.008,0.091-3.012,0.365l-7.485,41.531c-0.365,1.918,0.73,2.738,2.738,2.738
			c3.469,0,7.12-0.729,10.954-3.833c4.929-4.017,8.397-12.14,8.397-22.729c0-5.02-0.457-10.041-3.742-14.057
			C678.726,565.833,676.353,564.92,673.432,564.92z"/>
		<path fill="#FFFFFF" d="M425.436,564.738c-1.278,0-2.282,0.091-3.195,0.365l-4.017,21.542c0.73,0.091,1.46,0.091,2.647,0.091
			c6.389,0,11.684-4.108,11.684-12.505C432.555,569.758,430.456,564.738,425.436,564.738z"/>
		<path fill="#FFFFFF" d="M237.223,564.464c-3.834,0-6.024,1.187-9.037,4.29c-3.56,3.742-7.759,14.878-7.759,26.836
			c0,3.285,0.274,7.119,2.373,10.314c1.643,2.556,4.655,4.016,7.667,4.016c2.556,0,5.294-0.547,8.489-4.016
			c3.651-3.834,7.12-15.152,7.12-26.471c0-3.104-0.457-7.941-1.917-10.771C243.065,566.563,240.874,564.464,237.223,564.464z"/>
		<path fill="#FFFFFF" d="M0,0v1192h906V0H0z M126.595,573.774c-2.373,0.273-5.111,0.365-7.576,0.456l-0.365-6.754
			c0-0.822-0.183-1.369-1.46-1.552s-4.747-0.457-10.497-0.457c-0.365,0-0.821,0-0.913,0.365l-3.012,17.16
			c2.921-0.091,5.659-0.091,8.397-0.183c1.917,0,2.008-0.639,2.373-1.734l1.187-3.651c2.556-0.091,5.021,0,7.485,0.183
			c-0.547,3.012-1.278,6.48-1.825,9.584c-0.548,3.104-1.096,6.572-1.552,9.219c-2.465,0.183-4.929,0.183-7.485,0.183l0.091-3.391
			c0-1.552-0.091-2.203-2.008-2.203c-2.556,0-5.294,0-8.032,0l-2.738,16.078c-0.365,1.825,1.187,2.06,5.203,2.06
			c3.651,0,6.481-0.476,7.485-0.749c0.913-0.274,1.643-0.924,2.19-2.019l3.743-6.76c2.647,0.457,5.385,1.186,7.667,1.915
			c-1.734,4.928-3.56,10.312-5.568,15.425c-4.746,0-17.343-0.092-29.848-0.092c-4.199,0-8.763,0.091-12.505,0.091
			c0.457-2.647,0.913-5.203,1.369-7.76l4.564-0.182c0.365-0.092,0.548-0.273,0.548-0.639l7.576-42.81l-5.203-0.037
			c0.365-2.556,0.913-5.522,1.369-7.522c3.469,0,8.215,0,12.049,0c2.738,0,18.347,0,20.903,0c3.56,0,6.846-0.328,8.397-0.328
			C127.964,563.148,127.325,568.389,126.595,573.774z M190.671,577.517c-2.83,0.183-5.75,0.274-8.489,0.274l-0.274-9.219
			c0-0.457-0.091-1.004-0.456-1.278c-1.278-0.913-3.104-1.369-5.021-1.369c-2.738,0-6.024,0.821-8.763,3.286
			c-5.477,4.929-8.854,13.6-8.854,22.728c0,4.655,0.365,8.397,3.195,11.866c1.917,2.465,5.659,3.925,9.949,3.925
			c3.834,0,10.862-1.552,13.692-2.647c0.183,2.738,0.091,6.116,0,8.764c-6.024,2.281-13.965,3.924-18.165,3.924
			c-8.032,0-13.417-2.555-17.799-6.206c-4.929-4.108-7.029-10.954-7.029-18.073c0-12.961,7.211-24.28,15.792-30.396
			c6.663-4.838,14.239-6.481,22.363-6.481c5.75,0,10.041,0.913,11.866,1.917C192.132,564.738,191.401,571.218,190.671,577.517z
			 M248.815,610.742c-5.659,4.563-12.323,7.027-21.085,7.027c-8.671,0-14.696-3.285-18.438-7.666
			c-4.017-4.747-5.203-11.229-5.203-15.974c0-16.339,9.493-28.205,17.434-32.86c5.933-3.469,10.771-4.655,17.708-4.655
			c6.39,0,11.136,1.643,14.787,4.381c6.116,4.564,8.489,12.87,8.489,18.803C262.507,593.034,256.848,604.353,248.815,610.742z
			 M308.145,601.797c-3.742,0-6.846-1.553-10.132-3.013c-2.647-1.187-5.112-2.83-7.667-2.83c-2.19,0-4.107,2.1-4.29,6.024
			c-2.373,0.184-4.929,0-7.028,0c0.183-8.854,5.111-15.243,11.318-15.243c3.834,0,6.664,1.278,9.949,2.83
			c2.83,1.46,5.659,3.012,7.941,3.012c2.1,0,4.199-2.1,4.199-5.933c2.464-0.183,5.021-0.091,7.12,0
			C319.555,595.316,314.535,601.797,308.145,601.797z M382.9,574.778c-2.556,0.183-5.477,0.274-8.124,0.365l-0.274-7.394
			c-0.091-0.913-0.274-1.46-1.552-1.643c-1.643-0.183-4.107-0.457-9.493-0.457c-0.183,0-0.548,0-1.004,0.091l-3.56,19.442
			c3.104,0,5.842,0,8.763-0.091c1.643,0,2.008-0.639,2.282-1.734l1.096-3.742c2.556,0,5.203,0,7.758,0.091
			c-0.547,3.104-1.278,6.572-1.825,9.95c-0.639,3.468-1.096,6.754-1.734,9.583c-2.464,0.092-5.021,0.092-7.667,0.184l0.274-3.925
			c0.091-1.552-0.365-2.191-1.826-2.191c-2.738-0.183-5.568-0.183-8.489-0.183l-2.738,15.7l9.31,0.273
			c-0.547,2.465-1.004,5.203-1.643,7.851c-4.564,0-10.954-0.092-16.43-0.092c-4.199,0-8.58,0.092-12.323,0.092
			c0.457-2.557,1.004-5.295,1.46-7.76l4.473-0.182c0.274-0.092,0.457-0.183,0.457-0.457l7.576-42.992l-5.112-0.038
			c0.457-2.556,1.004-5.521,1.46-7.521c3.377,0,8.033,0,11.866,0c2.556,0,18.529,0,20.446,0c3.469-1,6.572-0.328,8.215-0.328
			C384.087,563.331,383.539,569.028,382.9,574.778z M446.886,616.857c-1.734,0.092-4.929,0.092-6.755,0.092
			c-1.917,0-8.854,0.091-10.497,0.091c-1.917-4.107-4.473-14.696-5.568-18.895c-0.73-2.83-2.464-4.016-4.563-4.016
			c-1.187,0-1.917,0.091-2.465,0.182l-2.738,14.696l5.021,0.345c-0.365,2.556-0.913,4.647-1.46,7.647c-3.469,0-7.576,0-12.688,0
			c-3.925,0-7.941,0-11.318,0c0.365-3,0.822-5.092,1.278-7.647l4.381-0.31c0.274,0,0.365-0.2,0.457-0.475l7.576-43l-4.838-0.187
			c0.457-2.647,0.913-5.205,1.46-7.76c5.933-0.091,13.327-0.184,20.172-0.184c5.75,0,8.945,0.273,13.144,1.643
			c7.394,2.464,10.132,8.489,10.132,13.783c0,8.306-6.298,14.239-13.236,16.612l-0.091,0.456c3.56,1.826,4.473,7.029,7.029,15.609
			c0.639,2.19,2.19,3.195,4.199,3.469l2.738,0.365C447.89,611.746,447.434,614.393,446.886,616.857z M495.901,565.521l-5.294,0.156
			c-0.274,0-0.274,0.124-0.274,0.397l-7.667,42.689l6.024,0.35c-0.457,2.465-0.913,5.196-1.461,7.844
			c-3.56,0-8.671-0.096-13.144-0.096c-4.017,0-9.037,0.09-13.053,0.09c0.456-2.557,1.004-5.387,1.46-7.942l5.021-0.184
			c0.183-0.091,0.365-0.274,0.456-0.548l7.485-42.718l-5.568-0.037c0.457-2.556,1.004-5.522,1.461-7.522c3.833,0,9.493,0,13.601,0
			c4.29,0,9.127,0,12.505,0C496.996,560,496.449,563.058,495.901,565.521z M553.952,573.774c-2.373,0.273-5.111,0.365-7.576,0.456
			l-0.365-6.754c0-0.822-0.183-1.369-1.46-1.552c-1.278-0.183-4.746-0.457-10.497-0.457c-0.365,0-0.821,0-0.913,0.365l-3.012,17.16
			c2.921-0.091,5.659-0.091,8.397-0.183c1.917,0,2.008-0.639,2.373-1.734l1.187-3.651c2.556-0.091,5.021,0,7.485,0.183
			c-0.548,3.012-1.278,6.48-1.826,9.584c-0.547,3.104-1.095,6.572-1.552,9.219c-2.464,0.183-4.929,0.183-7.484,0.183l0.091-3.391
			c0-1.552-0.091-2.203-2.008-2.203c-2.556,0-5.294,0-8.032,0l-2.738,16.078c-0.365,1.825,1.187,2.06,5.202,2.06
			c3.651,0,6.481-0.476,7.485-0.749c0.913-0.274,1.643-0.924,2.19-2.019l3.742-6.76c2.647,0.457,5.386,1.186,7.668,1.915
			c-1.734,4.928-3.561,10.312-5.568,15.425c-4.746,0-17.343-0.092-29.848-0.092c-4.199,0-8.763,0.091-12.505,0.091
			c0.456-2.647,0.912-5.203,1.369-7.76l4.563-0.182c0.365-0.092,0.548-0.273,0.548-0.639l7.576-42.81l-5.203-0.037
			c0.365-2.556,0.913-5.522,1.369-7.522c3.469,0,8.215,0,12.049,0c2.738,0,18.347,0,20.902,0c3.561,0,6.847-0.328,8.397-0.328
			C555.321,563.148,554.683,568.389,553.952,573.774z M633.636,565.194l-4.29,0.274c-0.273,0-0.456,0.183-0.639,0.639l-8.854,49.929
			c-1.551,0.639-5.385,1.562-10.861,1.562C604.519,610.114,596.395,596,588.636,579h-0.548c-1.825,10-3.56,19.887-5.385,29.745
			l6.846,0.294c-0.456,2.646-0.913,4.961-1.461,7.961c-4.107,0-8.854,0-13.235,0c-2.921,0-6.024,0.021-8.488,0.021
			c0.456-2.647,0.912-5.331,1.46-7.886l4.655-0.292c0.365,0,0.457-0.283,0.457-0.465l7.393-42.906l-5.477,0.052
			c0.548-2.647,0.913-5.524,1.461-7.524c4.929,0,11.774,0,16.978,0c5.021,10,13.145,27.146,19.716,41.203l0.548-0.21
			c1.734-11.227,3.56-22.421,5.021-33.466l-7.211,0.024c0.456-2.647,0.913-5.551,1.46-7.551c3.834,0,8.489,0,12.688,0
			c3.103,0,6.754-0.328,9.492-0.328C634.64,560.228,634.184,562.547,633.636,565.194z M684.386,612.293
			c-5.842,3.561-13.418,4.728-19.442,4.728c-3.378,0-8.307-0.021-11.137-0.021c-4.016,0-8.58,0-12.14,0
			c0.456-3,0.913-5.274,1.369-7.647l4.382-0.31c0.365-0.092,0.547-0.291,0.547-0.656l7.576-42.728l-5.111-0.187
			c0.548-2.647,1.004-5.205,1.552-7.761c6.48-0.182,13.966-0.275,21.359-0.275c8.488,0,14.878,1.734,18.712,4.655
			c6.207,4.655,9.036,12.048,9.036,20.446C701.089,596.046,692.966,606.908,684.386,612.293z M754.76,617.04
			c-5.842-0.091-17.891-0.183-30.031-0.183c-4.016,0-8.488,0.092-12.14,0.092c0.456-2.557,1.004-5.295,1.461-7.76l4.381-0.182
			c0.365-0.092,0.548-0.273,0.548-0.639l7.484-42.81l-4.929-0.038c0.456-2.556,0.913-5.521,1.461-7.521c3.742,0,8.671,0,13.053,0
			c3.833,0,8.58,0,12.688,0c-0.457,2-1.004,5.058-1.552,7.613l-5.477,0.064c-0.274,0-0.365,0.124-0.457,0.397l-7.394,40.955
			c-0.273,1.734-0.273,1.993,3.651,1.993c3.469,0,6.663-0.189,8.489-0.646c0.821-0.184,1.643-0.918,2.099-2.013l3.651-8.947
			c2.83,0.456,5.842,1.095,8.397,1.733C758.502,605.083,756.768,611.107,754.76,617.04z M824.132,565.613l-3.378,0.064
			c-5.021,7.302-15.152,20.844-21.45,28.967l-2.647,14.119l6.572,0.35c-0.365,2.465-0.913,5.196-1.46,7.844
			c-3.743,0-9.037-0.096-13.601-0.096c-4.199,0-9.311,0.09-13.51,0.09c0.457-2.557,1.005-5.296,1.552-7.852l5.295-0.274
			c0.364,0,0.547-0.274,0.547-0.64l2.374-13.417c-2.557-6.846-7.12-20.903-9.493-28.661c-0.092-0.183-0.274-0.639-0.548-0.639
			l-3.925,0.054c0.456-2.556,1.004-5.522,1.46-7.522c3.195,0,8.033,0,11.684,0c4.838,0,10.589,0,14.148,0
			c-0.456,2-1.004,4.966-1.552,7.521l-4.929,0.336c1.552,6.754,3.469,14.143,4.838,20.143h0.729c4.107-7,7.941-12.776,11.684-19.713
			c0.183-0.365,0.092-0.638-0.183-0.638l-4.929,0.009c0.456-2.556,1.004-5.658,1.461-7.658c4.198,0,9.127,0,13.691,0
			c2.556,0,5.111,0,7.119,0C825.227,560,824.679,563.058,824.132,565.613z"/>
	</g>
</g>
<g id="Organic" display="none">
	<path display="inline" fill="#FFFFFF" d="M479.949,571c-5.627,12-11.402,23.791-16.289,34.009
		c-0.296,0.592-0.148,1.011,0.297,1.011l21.473-0.035c-1.186-10.219-2.814-21.984-4.295-34.984H479.949z"/>
	<path display="inline" fill="#FFFFFF" d="M256.64,557.718c-2.073,0-3.702,0.148-5.183,0.593l-6.516,34.948
		c1.185,0.148,2.369,0.148,4.294,0.148c10.366,0,18.955-6.664,18.955-20.288C268.191,565.863,264.785,557.718,256.64,557.718z"/>
	<path display="inline" fill="#FFFFFF" d="M164.236,632.354c-9.181,7.404-19.992,11.402-34.208,11.402
		c-14.068,0-23.842-5.33-29.914-12.439c-6.516-7.699-8.441-18.214-8.441-25.914c0-26.508,15.401-45.759,28.285-53.312
		c9.625-5.627,17.474-7.553,28.729-7.553c10.366,0,18.066,2.666,23.99,7.108c9.922,7.404,13.772,20.88,13.772,30.506
		C186.449,603.625,177.268,621.987,164.236,632.354z"/>
	<path display="inline" fill="#FFFFFF" d="M291.44,642.275c-2.813,0.148-7.997,0.148-10.958,0.148c-3.11,0-14.364,0.148-17.03,0.148
		c-3.11-6.664-7.256-23.843-9.033-30.654c-1.185-4.591-3.999-6.516-7.405-6.516c-1.925,0-3.109,0.147-3.998,0.296l-4.443,23.842
		l8.145,0.307c-0.592,4.146-1.481,8.153-2.37,12.153c-5.627,0-12.291,0-20.584,0c-6.368,0-12.883,0-18.363,0
		c0.593-4,1.333-8.007,2.073-12.153l7.108-0.376c0.444,0,0.592-0.261,0.74-0.706l12.292-69.731l-7.849-0.288
		c0.74-4.294,1.481-8.437,2.369-12.583c9.626-0.148,21.621-0.293,32.727-0.293c9.33,0,14.513,0.445,21.325,2.667
		c11.995,3.999,16.438,13.772,16.438,22.361c0,13.476-10.218,23.102-21.473,26.953l-0.148,0.74
		c5.775,2.962,7.256,11.402,11.403,25.322c1.037,3.555,3.554,5.184,6.812,5.628l4.442,0.593
		C293.069,633.982,292.329,638.277,291.44,642.275z"/>
	<path display="inline" fill="#FFFFFF" d="M407.093,608.512l-6.516,0.296c-0.444,0-0.592,0.296-0.741,0.741l-5.183,28.729
		c-5.183,3.406-15.697,5.479-29.025,5.479c-16.141,0-27.1-4.887-33.912-11.402c-8.293-7.7-10.958-18.215-10.958-27.84
		c0-23.102,12.735-40.576,27.544-49.906c13.476-8.441,25.471-10.07,39.095-10.07c8.589,0,17.03,1.925,21.028,4.295
		c-1.185,9.478-2.518,19.251-3.702,28.876c-4.591,0.148-9.182,0.148-13.772,0.296l-0.444-14.216c0-0.889-0.296-1.629-0.889-2.221
		c-2.073-1.777-5.479-3.258-9.33-3.258c-5.923,0-11.403,1.037-17.178,5.923c-7.849,6.664-15.697,21.621-15.697,39.391
		c0,6.96,0.592,12.291,4.294,17.77c4.887,7.553,11.254,9.479,17.326,9.479c2.073,0,3.554-0.148,3.702-1.333l3.258-20.732
		l-11.551-0.296c0.592-4.443,1.333-8.885,2.073-13.18c6.516,0,15.845,0.148,23.842,0.148c6.072,0,13.476-0.148,18.955-0.148
		C408.722,599.627,407.982,604.068,407.093,608.512z"/>
	<path display="inline" fill="#FFFFFF" d="M518.452,642c-5.034,0-12.438,0-18.066,0c-7.404,0-16.585,0-23.102,0
		c0.741-4,1.481-8.304,2.222-12.302l7.996-0.522c0.445,0,0.74-0.411,0.74-0.854c-0.295-2.073-0.74-6.647-1.036-8.868
		c-0.147-0.593-0.593-0.732-1.036-0.732l-28.729,0.301c-1.334,3.258-2.963,7.259-4.295,10.369l8.293,0.307
		c-0.593,3.998-1.333,8.303-2.222,12.303c-6.072,0-13.624,0-20.88,0c-4.887,0-10.07,0-14.364,0c0.592-4,1.333-8.304,2.073-12.302
		l6.96-0.374c0.444-0.148,0.741-0.263,1.333-1.003c13.18-23.693,31.838-58.773,45.018-82.912c2.814-0.296,13.477-0.288,19.844-0.288
		c4.295,24.879,9.773,60.277,13.771,84.119l7.701,0.456C520.082,633.694,519.341,638,518.452,642z"/>
	<path display="inline" fill="#FFFFFF" d="M649.803,558.458l-6.96,0.444c-0.444,0-0.74,0.296-1.037,1.037l-14.364,81.003
		c-2.518,1.036-8.737,2.608-17.622,2.608C602.563,631.407,589.383,608,576.796,581h-0.889c-2.962,17-5.775,32.192-8.737,48.187
		l11.106,0.187c-0.74,4.294-1.48,8.627-2.369,12.627c-6.663,0-14.364,0-21.472,0c-4.739,0-9.774,0.286-13.773,0.286
		c0.741-4.295,1.481-8.521,2.37-12.667l7.552-0.409c0.593,0,0.741-0.429,0.741-0.724l11.995-69.592l-8.885-0.301
		c0.888-4.294,1.48-8.593,2.369-12.593c7.996,0,19.103,0,27.544,0c8.145,16,21.324,44.436,31.986,67.24l0.889-0.143
		c2.813-18.215,5.775-36.279,8.145-54.197l-11.698-0.305c0.74-4.294,1.48-8.596,2.369-12.596c6.22,0,13.771,0,20.584,0
		c5.035,0,10.958-0.139,15.4-0.139C651.432,550.008,650.691,554.164,649.803,558.458z"/>
	<path display="inline" fill="#FFFFFF" d="M718.66,558.597l-8.589,0.449c-0.444,0-0.444,0.299-0.444,0.743l-12.439,69.306
		l9.773,0.592c-0.74,3.999-1.48,8.442-2.369,12.737c-5.775,0-14.068-0.148-21.324-0.148c-6.516,0-14.661,0.148-21.177,0.148
		c0.74-4.146,1.629-8.737,2.369-12.884l8.146-0.296c0.296-0.148,0.592-0.445,0.74-0.889l12.143-69.305l-9.033-0.454
		c0.741-4.146,1.629-8.597,2.37-12.597c6.22,0,15.4,0,22.064,0c6.96,0,14.809,0,20.288,0
		C720.438,550,719.549,554.599,718.66,558.597z"/>
	<path display="inline" fill="#FFFFFF" d="M816.692,578.45c-4.591,0.296-9.329,0.444-13.772,0.444l-0.444-14.957
		c0-0.74-0.147-1.629-0.74-2.073c-2.073-1.481-5.035-2.221-8.145-2.221c-4.442,0-9.773,1.333-14.217,5.331
		c-8.885,7.997-14.364,22.065-14.364,36.874c0,7.553,0.593,13.624,5.184,19.252c3.109,3.998,9.181,6.367,16.142,6.367
		c6.219,0,17.622-2.518,22.213-4.295c0.296,4.443,0.147,9.922,0,14.217c-9.774,3.702-22.657,6.367-29.47,6.367
		c-13.031,0-21.769-4.146-28.877-10.069c-7.996-6.664-11.402-17.771-11.402-29.321c0-21.028,11.699-39.391,25.619-49.313
		c10.811-7.849,23.102-10.514,36.281-10.514c9.329,0,16.289,1.481,19.251,3.11C819.062,557.718,817.877,568.232,816.692,578.45z"/>
	<path display="inline" fill="#FFFFFF" d="M145.429,557.274c-6.219,0-9.773,1.925-14.66,6.96
		c-5.775,6.071-12.587,24.138-12.587,43.538c0,5.331,0.444,11.551,3.85,16.733c2.666,4.146,7.552,6.517,12.439,6.517
		c4.146,0,8.589-0.889,13.772-6.517c5.923-6.22,11.551-24.582,11.551-42.945c0-5.035-0.741-12.884-3.11-17.475
		C154.906,560.68,151.353,557.274,145.429,557.274z"/>
</g>
</svg>
