<?xml version="1.0" encoding="utf-8"?>
<!-- Generator: Adobe Illustrator 16.0.0, SVG Export Plug-In . SVG Version: 6.00 Build 0)  -->
<!DOCTYPE svg PUBLIC "-//W3C//DTD SVG 1.1//EN" "http://www.w3.org/Graphics/SVG/1.1/DTD/svg11.dtd">
<svg version="1.1" xmlns="http://www.w3.org/2000/svg" xmlns:xlink="http://www.w3.org/1999/xlink" x="0px" y="0px" width="906px"
	 height="1192px" viewBox="0 0 906 1192" enable-background="new 0 0 906 1192" xml:space="preserve">
<g id="BG" display="none">
	<rect x="-547" y="476" display="inline" fill="#8C6239" width="2000" height="240"/>
</g>
<g id="Fill">
</g>
<g id="Text" display="none">
	
		<text transform="matrix(1 0 0 1 85.1577 642.2754)" display="inline" font-family="'ChaparralPro-BoldIt'" font-size="148.086" letter-spacing="14">organic</text>
</g>
<g id="Outlines">
	<g>
		<path fill="#FFFFFF" d="M479.949,571c-5.627,12-11.402,23.791-16.289,34.009c-0.296,0.592-0.148,1.011,0.297,1.011l21.473-0.035
			c-1.186-10.219-2.814-21.984-4.295-34.984H479.949z"/>
		<path fill="#FFFFFF" d="M256.64,557.718c-2.073,0-3.702,0.148-5.183,0.593l-6.516,34.948c1.185,0.148,2.369,0.148,4.294,0.148
			c10.366,0,18.955-6.664,18.955-20.288C268.191,565.863,264.785,557.718,256.64,557.718z"/>
		<path fill="#FFFFFF" d="M0,0v1192h906V0H0z M164.236,632.354c-9.181,7.404-19.992,11.402-34.208,11.402
			c-14.068,0-23.842-5.33-29.914-12.439c-6.516-7.699-8.441-18.214-8.441-25.914c0-26.508,15.401-45.759,28.285-53.312
			c9.625-5.627,17.474-7.553,28.729-7.553c10.366,0,18.066,2.666,23.99,7.108c9.922,7.404,13.772,20.88,13.772,30.506
			C186.449,603.625,177.268,621.987,164.236,632.354z M291.44,642.275c-2.813,0.148-7.997,0.148-10.958,0.148
			c-3.11,0-14.364,0.148-17.03,0.148c-3.11-6.664-7.256-23.843-9.033-30.654c-1.185-4.591-3.999-6.516-7.405-6.516
			c-1.925,0-3.109,0.147-3.998,0.296l-4.443,23.842l8.145,0.307c-0.592,4.146-1.481,8.153-2.37,12.153c-5.627,0-12.291,0-20.584,0
			c-6.368,0-12.883,0-18.363,0c0.593-4,1.333-8.007,2.073-12.153l7.108-0.376c0.444,0,0.592-0.261,0.74-0.706l12.292-69.731
			l-7.849-0.288c0.74-4.294,1.481-8.437,2.369-12.583c9.626-0.148,21.621-0.293,32.727-0.293c9.33,0,14.513,0.445,21.325,2.667
			c11.995,3.999,16.438,13.772,16.438,22.361c0,13.476-10.218,23.102-21.473,26.953l-0.148,0.74
			c5.775,2.962,7.256,11.402,11.403,25.322c1.037,3.555,3.554,5.184,6.812,5.628l4.442,0.593
			C293.069,633.982,292.329,638.277,291.44,642.275z M407.093,608.512l-6.516,0.296c-0.444,0-0.592,0.296-0.741,0.741l-5.183,28.729
			c-5.183,3.406-15.697,5.479-29.025,5.479c-16.141,0-27.1-4.887-33.912-11.402c-8.293-7.7-10.958-18.215-10.958-27.84
			c0-23.102,12.735-40.576,27.544-49.906c13.476-8.441,25.471-10.07,39.095-10.07c8.589,0,17.03,1.925,21.028,4.295
			c-1.185,9.478-2.518,19.251-3.702,28.876c-4.591,0.148-9.182,0.148-13.772,0.296l-0.444-14.216c0-0.889-0.296-1.629-0.889-2.221
			c-2.073-1.777-5.479-3.258-9.33-3.258c-5.923,0-11.403,1.037-17.178,5.923c-7.849,6.664-15.697,21.621-15.697,39.391
			c0,6.96,0.592,12.291,4.294,17.77c4.887,7.553,11.254,9.479,17.326,9.479c2.073,0,3.554-0.148,3.702-1.333l3.258-20.732
			l-11.551-0.296c0.592-4.443,1.333-8.885,2.073-13.18c6.516,0,15.845,0.148,23.842,0.148c6.072,0,13.476-0.148,18.955-0.148
			C408.722,599.627,407.982,604.068,407.093,608.512z M518.452,642c-5.034,0-12.438,0-18.066,0c-7.404,0-16.585,0-23.102,0
			c0.741-4,1.481-8.304,2.222-12.302l7.996-0.522c0.445,0,0.74-0.411,0.74-0.854c-0.295-2.073-0.74-6.647-1.036-8.868
			c-0.147-0.593-0.593-0.732-1.036-0.732l-28.729,0.301c-1.334,3.258-2.963,7.259-4.295,10.369l8.293,0.307
			c-0.593,3.998-1.333,8.303-2.222,12.303c-6.072,0-13.624,0-20.88,0c-4.887,0-10.07,0-14.364,0c0.592-4,1.333-8.304,2.073-12.302
			l6.96-0.374c0.444-0.148,0.741-0.263,1.333-1.003c13.18-23.693,31.838-58.773,45.018-82.912
			c2.814-0.296,13.477-0.288,19.844-0.288c4.295,24.879,9.773,60.277,13.771,84.119l7.701,0.456
			C520.082,633.694,519.341,638,518.452,642z M649.803,558.458l-6.96,0.444c-0.444,0-0.74,0.296-1.037,1.037l-14.364,81.003
			c-2.518,1.036-8.737,2.608-17.622,2.608C602.563,631.407,589.383,608,576.796,581h-0.889c-2.962,17-5.775,32.192-8.737,48.187
			l11.106,0.187c-0.74,4.294-1.48,8.627-2.369,12.627c-6.663,0-14.364,0-21.472,0c-4.739,0-9.774,0.286-13.773,0.286
			c0.741-4.295,1.481-8.521,2.37-12.667l7.552-0.409c0.593,0,0.741-0.429,0.741-0.724l11.995-69.592l-8.885-0.301
			c0.888-4.294,1.48-8.593,2.369-12.593c7.996,0,19.103,0,27.544,0c8.145,16,21.324,44.436,31.986,67.24l0.889-0.143
			c2.813-18.215,5.775-36.279,8.145-54.197l-11.698-0.305c0.74-4.294,1.48-8.596,2.369-12.596c6.22,0,13.771,0,20.584,0
			c5.035,0,10.958-0.139,15.4-0.139C651.432,550.008,650.691,554.164,649.803,558.458z M718.66,558.597l-8.589,0.449
			c-0.444,0-0.444,0.299-0.444,0.743l-12.439,69.306l9.773,0.592c-0.74,3.999-1.48,8.442-2.369,12.737
			c-5.775,0-14.068-0.148-21.324-0.148c-6.516,0-14.661,0.148-21.177,0.148c0.74-4.146,1.629-8.737,2.369-12.884l8.146-0.296
			c0.296-0.148,0.592-0.445,0.74-0.889l12.143-69.305l-9.033-0.454c0.741-4.146,1.629-8.597,2.37-12.597c6.22,0,15.4,0,22.064,0
			c6.96,0,14.809,0,20.288,0C720.438,550,719.549,554.599,718.66,558.597z M816.692,578.45c-4.591,0.296-9.329,0.444-13.772,0.444
			l-0.444-14.957c0-0.74-0.147-1.629-0.74-2.073c-2.073-1.481-5.035-2.221-8.145-2.221c-4.442,0-9.773,1.333-14.217,5.331
			c-8.885,7.997-14.364,22.065-14.364,36.874c0,7.553,0.593,13.624,5.184,19.252c3.109,3.998,9.181,6.367,16.142,6.367
			c6.219,0,17.622-2.518,22.213-4.295c0.296,4.443,0.147,9.922,0,14.217c-9.774,3.702-22.657,6.367-29.47,6.367
			c-13.031,0-21.769-4.146-28.877-10.069c-7.996-6.664-11.402-17.771-11.402-29.321c0-21.028,11.699-39.391,25.619-49.313
			c10.811-7.849,23.102-10.514,36.281-10.514c9.329,0,16.289,1.481,19.251,3.11C819.062,557.718,817.877,568.232,816.692,578.45z"/>
		<path fill="#FFFFFF" d="M145.429,557.274c-6.219,0-9.773,1.925-14.66,6.96c-5.775,6.071-12.587,24.138-12.587,43.538
			c0,5.331,0.444,11.551,3.85,16.733c2.666,4.146,7.552,6.517,12.439,6.517c4.146,0,8.589-0.889,13.772-6.517
			c5.923-6.22,11.551-24.582,11.551-42.945c0-5.035-0.741-12.884-3.11-17.475C154.906,560.68,151.353,557.274,145.429,557.274z"/>
	</g>
</g>
</svg>
