<?xml version="1.0" encoding="utf-8"?>
<!-- Generator: Adobe Illustrator 16.0.0, SVG Export Plug-In . SVG Version: 6.00 Build 0)  -->
<!DOCTYPE svg PUBLIC "-//W3C//DTD SVG 1.1//EN" "http://www.w3.org/Graphics/SVG/1.1/DTD/svg11.dtd">
<svg version="1.1" id="Layer_1" xmlns="http://www.w3.org/2000/svg" xmlns:xlink="http://www.w3.org/1999/xlink" x="0px" y="0px"
	 width="400px" height="400px" viewBox="0 0 400 400" enable-background="new 0 0 400 400" xml:space="preserve">
<path d="M259.394,334.885c0,10.179-3.791,20.726-11.379,31.645c-7.955,10.362-18.18,18.363-30.667,24.004
	c-12.494,5.647-24.66,8.467-36.499,8.467c-10.545,0-19.983-3.056-28.313-9.162c-7.955-6.105-11.93-14.245-11.93-24.423
	c0-10.913,3.975-21.552,11.93-31.914c3.7-4.066,8.231-8.276,13.603-12.632c5.365-4.342,11.287-8.644,17.76-12.9
	c6.848-2.957,13.091-5.089,18.738-6.388c5.64-1.292,11.143-1.941,16.514-1.941c11.281,0,21.276,3.147,29.973,9.438V1h10.271V334.885
	z"/>
</svg>
