<?xml version="1.0" encoding="utf-8"?>
<!-- Generator: Adobe Illustrator 16.0.0, SVG Export Plug-In . SVG Version: 6.00 Build 0)  -->
<!DOCTYPE svg PUBLIC "-//W3C//DTD SVG 1.1//EN" "http://www.w3.org/Graphics/SVG/1.1/DTD/svg11.dtd">
<svg version="1.1" id="Icon" xmlns="http://www.w3.org/2000/svg" xmlns:xlink="http://www.w3.org/1999/xlink" x="0px" y="0px"
	 width="400px" height="400px" viewBox="0 0 400 400" enable-background="new 0 0 400 400" xml:space="preserve">
<g>
	<path d="M5.437,33.829L81.66,258.638c2.426,11.178,12.37,19.553,24.274,19.553H324c0.062,0,0.121,0.007,0.183,0.007
		c0.152,0,0.305-0.017,0.459-0.019c5.274-0.1,11.91-3.211,15.86-6.552c3.368-2.848,6.029-6.685,7.547-10.833
		c17.726-48.518,29.903-98.813,45.175-148.11c1.562-5.042,2.647-10.411,2.661-15.559c0.025-9.199-3.377-17.687-13.624-22.313
		c-3.34-1.507-7.014-2.195-10.666-2.195H71.055L52.494,17.874C49.031,7.66,39.573,1.171,29.373,1.003
		c-2.776-0.045-5.606,0.376-8.386,1.319C10.505,5.875,3.949,15.743,4.118,26.247C4.159,28.764,4.585,31.316,5.437,33.829z
		 M87.902,122.305h250.412l-32.517,106.197H123.909L87.902,122.305z"/>
	<circle cx="296.291" cy="355.158" r="43.842"/>
	<circle cx="139.662" cy="355.158" r="43.842"/>
</g>
</svg>
