<?xml version="1.0" encoding="utf-8"?>
<!-- Generator: Adobe Illustrator 16.0.0, SVG Export Plug-In . SVG Version: 6.00 Build 0)  -->
<!DOCTYPE svg PUBLIC "-//W3C//DTD SVG 1.1//EN" "http://www.w3.org/Graphics/SVG/1.1/DTD/svg11.dtd">
<svg version="1.1" xmlns="http://www.w3.org/2000/svg" xmlns:xlink="http://www.w3.org/1999/xlink" x="0px" y="0px" width="500px"
	 height="500px" viewBox="0 0 500 500" enable-background="new 0 0 500 500" xml:space="preserve">
<g id="Circle" display="none">
	<g display="inline">
		<circle cx="250" cy="250" r="250"/>
	</g>
</g>
<g id="Icon">
	<path d="M407.781,372.369L294.66,259.249c34.776-51.491,29.219-121.558-16.034-166.811
		c-51.362-51.363-134.881-51.417-186.244-0.054c-51.363,51.363-51.443,135.016-0.08,186.378
		c45.387,45.384,115.734,50.841,167.075,15.915l113.048,113.048c9.763,9.764,25.592,9.764,35.356,0
		C417.544,397.962,417.544,382.133,407.781,372.369z M127.792,243.272c-31.868-31.867-31.868-83.72,0-115.587
		c31.867-31.867,83.719-31.867,115.586,0c30.827,30.827,31.829,80.353,3.016,112.4c-1.105,0.791-2.163,1.677-3.155,2.668
		c-1.021,1.021-1.928,2.11-2.734,3.25C208.467,275.107,158.719,274.2,127.792,243.272z"/>
</g>
<g id="Guides" display="none">
	<rect x="125" y="125" display="inline" opacity="0.5" fill="#FF0000" width="250" height="250"/>
</g>
</svg>
