<?xml version="1.0" encoding="utf-8"?>
<!-- Generator: Adobe Illustrator 16.0.0, SVG Export Plug-In . SVG Version: 6.00 Build 0)  -->
<!DOCTYPE svg PUBLIC "-//W3C//DTD SVG 1.1//EN" "http://www.w3.org/Graphics/SVG/1.1/DTD/svg11.dtd">
<svg version="1.1" id="_x30_3_left" xmlns="http://www.w3.org/2000/svg" xmlns:xlink="http://www.w3.org/1999/xlink" x="0px"
	 y="0px" width="400px" height="400px" viewBox="1.503 4.253 400 400" enable-background="new 1.503 4.253 400 400"
	 xml:space="preserve">
<path d="M166.248,315.458c9.762-9.763,9.762-25.593,0-35.355l-50.85-50.85l232.566,0.001c13.807,0,25-11.192,25-25
	c0-13.806-11.194-25-25-25H115.398l50.85-50.851c9.764-9.764,9.764-25.593,0-35.355s-25.594-9.763-35.355,0l-93.527,93.528
	c-0.035,0.035-0.066,0.072-0.102,0.107c-0.254,0.257-0.504,0.518-0.748,0.786c-0.141,0.156-0.275,0.317-0.412,0.477
	c-0.129,0.148-0.26,0.295-0.385,0.447c-0.162,0.198-0.318,0.401-0.475,0.604c-0.09,0.118-0.184,0.233-0.271,0.353
	c-0.166,0.221-0.322,0.446-0.479,0.671c-0.074,0.107-0.15,0.212-0.223,0.32c-0.154,0.231-0.303,0.466-0.449,0.701
	c-0.068,0.109-0.139,0.218-0.205,0.328c-0.139,0.231-0.271,0.465-0.402,0.7c-0.068,0.123-0.139,0.244-0.207,0.369
	c-0.033,0.062-0.07,0.125-0.104,0.188c-0.084,0.158-0.158,0.32-0.238,0.48c-0.072,0.146-0.146,0.289-0.215,0.436
	c-0.098,0.206-0.189,0.414-0.281,0.622c-0.076,0.171-0.152,0.341-0.223,0.513c-0.078,0.187-0.15,0.373-0.223,0.561
	c-0.076,0.2-0.154,0.399-0.227,0.602c-0.059,0.164-0.111,0.328-0.166,0.493c-0.076,0.227-0.152,0.454-0.221,0.684
	c-0.045,0.146-0.084,0.295-0.125,0.442c-0.07,0.247-0.139,0.493-0.201,0.743c-0.035,0.138-0.064,0.276-0.096,0.414
	c-0.059,0.259-0.119,0.517-0.17,0.778c-0.027,0.142-0.051,0.283-0.076,0.425c-0.047,0.257-0.092,0.513-0.131,0.772
	c-0.023,0.162-0.041,0.325-0.062,0.488c-0.029,0.238-0.062,0.477-0.086,0.718c-0.02,0.213-0.033,0.427-0.049,0.641
	c-0.014,0.192-0.031,0.384-0.041,0.578c-0.02,0.412-0.031,0.824-0.031,1.236s0.012,0.823,0.031,1.235
	c0.01,0.195,0.027,0.388,0.043,0.581c0.014,0.213,0.027,0.426,0.047,0.638c0.025,0.244,0.057,0.485,0.088,0.727
	c0.02,0.159,0.037,0.318,0.061,0.478c0.039,0.264,0.086,0.524,0.133,0.785c0.025,0.137,0.047,0.274,0.074,0.412
	c0.051,0.265,0.111,0.527,0.172,0.789c0.031,0.134,0.061,0.269,0.094,0.402c0.062,0.253,0.131,0.503,0.203,0.753
	c0.039,0.145,0.078,0.29,0.123,0.434c0.068,0.231,0.145,0.461,0.221,0.689c0.055,0.163,0.107,0.326,0.166,0.488
	c0.072,0.204,0.15,0.405,0.229,0.606c0.072,0.186,0.143,0.37,0.219,0.554c0.072,0.175,0.148,0.347,0.225,0.52
	c0.092,0.207,0.184,0.414,0.281,0.619c0.068,0.146,0.141,0.288,0.213,0.432c0.113,0.226,0.227,0.451,0.346,0.674
	c0.064,0.122,0.135,0.242,0.203,0.363c0.131,0.237,0.264,0.473,0.404,0.706c0.066,0.108,0.135,0.214,0.201,0.32
	c0.148,0.238,0.297,0.476,0.455,0.709c0.068,0.104,0.143,0.206,0.215,0.31c0.158,0.229,0.318,0.459,0.486,0.684
	c0.082,0.11,0.168,0.218,0.252,0.327c0.164,0.211,0.326,0.423,0.496,0.63c0.111,0.136,0.229,0.267,0.344,0.399
	c0.15,0.176,0.297,0.353,0.453,0.524c0.203,0.224,0.414,0.44,0.625,0.657c0.076,0.077,0.145,0.156,0.221,0.232
	c0.008,0.007,0.014,0.013,0.02,0.019l93.508,93.508C140.654,325.221,156.484,325.221,166.248,315.458z"/>
</svg>
