<?xml version="1.0" encoding="utf-8"?>
<!-- Generator: Adobe Illustrator 16.0.0, SVG Export Plug-In . SVG Version: 6.00 Build 0)  -->
<!DOCTYPE svg PUBLIC "-//W3C//DTD SVG 1.1//EN" "http://www.w3.org/Graphics/SVG/1.1/DTD/svg11.dtd">
<svg version="1.1" id="Layer_1" xmlns="http://www.w3.org/2000/svg" xmlns:xlink="http://www.w3.org/1999/xlink" x="0px" y="0px"
	 width="500px" height="500px" viewBox="0 0 500 500" enable-background="new 0 0 500 500" xml:space="preserve">
<g id="RSS_1_">
	<path d="M250,0C111.929,0,0,111.929,0,250s111.929,250,250,250s250-111.929,250-250S388.071,0,250,0z M166.667,375
		C143.655,375,125,356.346,125,333.333c0-23.011,18.655-41.666,41.667-41.666c23.011,0,41.666,18.655,41.666,41.666
		C208.333,356.346,189.678,375,166.667,375z M284.544,375h-45.695C245.939,362.743,250,348.512,250,333.333
		C250,287.31,212.69,250,166.667,250c-15.18,0-29.409,4.061-41.667,11.151v-45.695c13.033-4.607,27.055-7.123,41.667-7.123
		c69.036,0,125,55.964,125,125C291.667,347.944,289.15,361.967,284.544,375z M370.828,375h-42.745
		c3.428-13.316,5.25-27.279,5.25-41.667c0-92.047-74.619-166.666-166.666-166.666c-14.388,0-28.35,1.823-41.667,5.251v-42.747
		c13.464-2.732,27.397-4.171,41.667-4.171C281.727,125,375,218.274,375,333.333C375,347.604,373.562,361.537,370.828,375z"/>
</g>
</svg>
