<?xml version="1.0" encoding="utf-8"?>
<!-- Generator: Adobe Illustrator 16.0.0, SVG Export Plug-In . SVG Version: 6.00 Build 0)  -->
<!DOCTYPE svg PUBLIC "-//W3C//DTD SVG 1.1//EN" "http://www.w3.org/Graphics/SVG/1.1/DTD/svg11.dtd">
<svg version="1.1" id="_x30_3_up" xmlns="http://www.w3.org/2000/svg" xmlns:xlink="http://www.w3.org/1999/xlink" x="0px" y="0px"
	 width="400px" height="400px" viewBox="1.503 4.253 400 400" enable-background="new 1.503 4.253 400 400" xml:space="preserve">
<path d="M90.298,168.998c9.763,9.762,25.593,9.762,35.355,0l50.85-50.85l-0.001,232.566c0,13.808,11.192,25,25,25
	c13.806,0,25-11.193,25-25V118.148l50.851,50.85c9.764,9.764,25.593,9.764,35.355,0s9.763-25.594,0-35.355L219.18,40.115
	c-0.035-0.035-0.072-0.066-0.107-0.102c-0.257-0.254-0.518-0.504-0.786-0.748c-0.156-0.141-0.317-0.275-0.477-0.412
	c-0.148-0.129-0.295-0.26-0.447-0.385c-0.198-0.162-0.401-0.318-0.604-0.475c-0.118-0.09-0.233-0.184-0.353-0.271
	c-0.221-0.166-0.446-0.322-0.671-0.479c-0.107-0.074-0.212-0.15-0.32-0.223c-0.231-0.154-0.466-0.303-0.701-0.449
	c-0.109-0.068-0.218-0.139-0.328-0.205c-0.231-0.139-0.465-0.271-0.7-0.402c-0.123-0.068-0.244-0.139-0.369-0.207
	c-0.062-0.033-0.125-0.07-0.188-0.104c-0.158-0.084-0.32-0.158-0.48-0.238c-0.146-0.072-0.289-0.146-0.436-0.215
	c-0.206-0.098-0.414-0.189-0.622-0.281c-0.171-0.076-0.341-0.152-0.513-0.223c-0.187-0.078-0.373-0.15-0.561-0.223
	c-0.2-0.076-0.399-0.154-0.602-0.227c-0.164-0.059-0.328-0.111-0.493-0.166c-0.227-0.076-0.454-0.152-0.684-0.221
	c-0.146-0.045-0.295-0.084-0.442-0.125c-0.247-0.07-0.493-0.139-0.743-0.201c-0.138-0.035-0.276-0.064-0.414-0.096
	c-0.259-0.059-0.517-0.119-0.778-0.17c-0.142-0.027-0.283-0.051-0.425-0.076c-0.257-0.047-0.513-0.092-0.772-0.131
	c-0.162-0.023-0.325-0.041-0.488-0.062c-0.238-0.029-0.477-0.062-0.718-0.086c-0.213-0.02-0.427-0.033-0.641-0.049
	c-0.192-0.014-0.384-0.031-0.578-0.041c-0.412-0.02-0.824-0.031-1.236-0.031s-0.823,0.012-1.235,0.031
	c-0.195,0.01-0.388,0.027-0.581,0.043c-0.213,0.014-0.426,0.027-0.638,0.047c-0.244,0.025-0.485,0.057-0.727,0.088
	c-0.159,0.02-0.318,0.037-0.478,0.061c-0.264,0.039-0.524,0.086-0.785,0.133c-0.137,0.025-0.274,0.047-0.412,0.074
	c-0.265,0.051-0.527,0.111-0.789,0.172c-0.134,0.031-0.269,0.061-0.402,0.094c-0.253,0.062-0.503,0.131-0.753,0.203
	c-0.145,0.039-0.29,0.078-0.434,0.123c-0.231,0.068-0.461,0.145-0.689,0.221c-0.163,0.055-0.326,0.107-0.488,0.166
	c-0.204,0.072-0.405,0.15-0.606,0.229c-0.186,0.072-0.37,0.143-0.554,0.219c-0.175,0.072-0.347,0.148-0.52,0.225
	c-0.207,0.092-0.414,0.184-0.619,0.281c-0.146,0.068-0.288,0.141-0.432,0.213c-0.226,0.113-0.451,0.227-0.674,0.346
	c-0.122,0.064-0.242,0.135-0.363,0.203c-0.237,0.131-0.473,0.264-0.706,0.404c-0.108,0.066-0.214,0.135-0.32,0.201
	c-0.238,0.148-0.476,0.297-0.709,0.455c-0.104,0.068-0.206,0.143-0.31,0.215c-0.229,0.158-0.459,0.318-0.684,0.486
	c-0.11,0.082-0.218,0.168-0.327,0.252c-0.211,0.164-0.423,0.326-0.63,0.496c-0.136,0.111-0.267,0.229-0.399,0.344
	c-0.176,0.15-0.353,0.297-0.524,0.453c-0.224,0.203-0.44,0.414-0.657,0.625c-0.077,0.076-0.156,0.145-0.232,0.221
	c-0.007,0.008-0.013,0.014-0.019,0.02l-93.508,93.508C80.536,143.404,80.536,159.234,90.298,168.998z"/>
</svg>
